<?xml version="1.0" encoding="UTF-8"?>
<svg version="1.1" xmlns="http://www.w3.org/2000/svg" width="276" height="83">
<path d="M0 0 C2.70569083 1.00610773 3.81218041 1.67131572 5.265625 4.21484375 C8.71252181 13.74852262 9.63256061 22.08895518 5.39453125 31.5234375 C1.52427813 38.39666012 -3.83588099 44.15644792 -9.65234375 49.4296875 C-11.21437501 51.24979349 -11.59981255 52.65966327 -12 55 C-2.04938768 55.52805127 -2.04938768 55.52805127 7 52 C10.9103538 47.68512684 11.170718 41.57082379 12 36 C12.99 36.495 12.99 36.495 14 37 C14.61538462 47.56410256 14.61538462 47.56410256 12.5 52.5 C6.24882742 58.75117258 0.03603901 59.50789525 -8.6328125 60.01953125 C-11.87723164 60.00071211 -14.823276 59.63244809 -18 59 C-19.65 61.64 -21.3 64.28 -23 67 C-23.66 66.67 -24.32 66.34 -25 66 C-24.85892253 64.54119891 -24.71197585 63.08296449 -24.5625 61.625 C-24.48128906 60.81289062 -24.40007813 60.00078125 -24.31640625 59.1640625 C-24 57 -24 57 -23 55 C-23.73605469 54.896875 -24.47210938 54.79375 -25.23046875 54.6875 C-34.36097764 52.42097029 -42.33537763 42.4132808 -47 34.6875 C-48.77619187 28.13779249 -49.30415057 21.70490489 -46.3125 15.5 C-41.68720766 10.49968396 -37.61395832 7.36667218 -30.640625 6.8125 C-25.35912894 6.68446373 -20.98415437 7.26638109 -16 9 C-16 9.33 -16 9.66 -16 10 C-16.61746094 9.97679687 -17.23492187 9.95359375 -17.87109375 9.9296875 C-26.98809962 9.7354134 -34.35108476 10.84868974 -42 16 C-44.74035643 20.11053465 -44.70865143 23.17371076 -44 28 C-40.83487066 37.40705881 -33.85906898 46.36912303 -25 51 C-23.68 51 -22.36 51 -21 51 C-18.38592128 45.63809899 -16.50771472 40.96564796 -16 35 C-18.94727535 35.10169161 -18.94727535 35.10169161 -22 36 C-23.45291273 38.46255685 -23.45291273 38.46255685 -24 41 C-26.50037734 38.82575883 -27.43628586 37.26954202 -28 34 C-28 35.32 -28 36.64 -28 38 C-29.485 37.505 -29.485 37.505 -31 37 C-31.33 36.01 -31.66 35.02 -32 34 C-33.87387216 33.19787372 -33.87387216 33.19787372 -36.0625 32.8125 C-37.16271484 32.57466797 -37.16271484 32.57466797 -38.28515625 32.33203125 C-38.85105469 32.22246094 -39.41695312 32.11289062 -40 32 C-40 31.67 -40 31.34 -40 31 C-38.54263913 30.80508548 -37.08405407 30.61930642 -35.625 30.4375 C-34.81289063 30.33308594 -34.00078125 30.22867188 -33.1640625 30.12109375 C-31 30 -31 30 -29 31 C-28.87625 29.865625 -28.7525 28.73125 -28.625 27.5625 C-28.315625 25.7990625 -28.315625 25.7990625 -28 24 C-27.34 23.67 -26.68 23.34 -26 23 C-25.67 25.31 -25.34 27.62 -25 30 C-24.236875 30.144375 -23.47375 30.28875 -22.6875 30.4375 C-20 31 -20 31 -17 32 C-19.8985808 26.71586155 -22.37065101 22.6553533 -28 20 C-31.3304874 19.41579157 -34.6232389 19.13346882 -38 19 C-36 16 -36 16 -33 15 C-27.53711578 14.46803375 -23.45856527 14.50544884 -19 18 C-18.071875 18.86625 -17.14375 19.7325 -16.1875 20.625 C-12.08092074 23.68480415 -10.08994872 24.08209595 -5 24 C-1.71691106 21.72709227 -0.74280294 19.81657746 0 16 C0.06926968 13.24029592 0.0941736 10.50803958 0.0625 7.75 C0.05798828 7.00492188 0.05347656 6.25984375 0.04882812 5.4921875 C0.03709246 3.6614236 0.0191585 1.83070127 0 0 Z " fill="#0568F0" transform="translate(62,5)"/>
<path d="M0 0 C3.5510981 0.38064058 6.12064792 0.45029872 9.6875 -0.125 C13.50493859 -0.58309263 14.81793218 0.18990482 17.8125 2.5 C19.8125 4.5 19.8125 4.5 20.03955078 6.93017578 C20.02907715 7.9251709 20.01860352 8.92016602 20.0078125 9.9453125 C20.00136719 11.02167969 19.99492187 12.09804688 19.98828125 13.20703125 C19.97152344 14.33496094 19.95476562 15.46289062 19.9375 16.625 C19.92847656 17.76066406 19.91945312 18.89632812 19.91015625 20.06640625 C19.88653098 22.87781299 19.85359013 25.68880298 19.8125 28.5 C16.0625 29.625 16.0625 29.625 13.8125 28.5 C13.3175 17.115 13.3175 17.115 12.8125 5.5 C11.1625 6.16 9.5125 6.82 7.8125 7.5 C7.4825 14.43 7.1525 21.36 6.8125 28.5 C5.1625 28.83 3.5125 29.16 1.8125 29.5 C0.19469843 27.88219843 0.58977853 26.04364482 0.49609375 23.80859375 C0.43325195 22.39223633 0.43325195 22.39223633 0.36914062 20.94726562 C0.32982422 19.95404297 0.29050781 18.96082031 0.25 17.9375 C0.20681641 16.94041016 0.16363281 15.94332031 0.11914062 14.91601562 C0.01269702 12.4441585 -0.08931928 9.9721969 -0.1875 7.5 C-2.13353274 6.90929986 -2.13353274 6.90929986 -4.1875 6.5 C-5.80530157 8.11780157 -5.41022147 9.95635518 -5.50390625 12.19140625 C-5.54580078 13.13564453 -5.58769531 14.07988281 -5.63085938 15.05273438 C-5.67017578 16.04595703 -5.70949219 17.03917969 -5.75 18.0625 C-5.81477539 19.55813477 -5.81477539 19.55813477 -5.88085938 21.08398438 C-5.98730298 23.5558415 -6.08931928 26.0278031 -6.1875 28.5 C-7.84364657 28.88218767 -9.51207024 29.21395102 -11.1875 29.5 C-13.67460887 27.01289113 -12.51812945 20.58585866 -12.5625 17.25 C-12.59988281 16.19941406 -12.63726562 15.14882813 -12.67578125 14.06640625 C-12.76478836 6.26344975 -12.76478836 6.26344975 -9.7890625 2.328125 C-5.95835662 -0.36372238 -4.592872 -0.55747964 0 0 Z " fill="#323233" transform="translate(117.1875,19.5)"/>
<path d="M0 0 C2.125 0.375 2.125 0.375 4 1 C4.14601614 4.54122827 4.2343056 8.08167644 4.3125 11.625 C4.35439453 12.62402344 4.39628906 13.62304688 4.43945312 14.65234375 C4.57762626 22.99800105 4.57762626 22.99800105 1.66796875 26.6484375 C-1.50997519 29.44949497 -3.17870762 29.93916353 -7.375 30.25 C-11.32313087 29.97771511 -12.98150144 29.51541547 -16 27 C-18.33117811 23.58093877 -19 21.58956112 -19 17.4375 C-17.81383817 13.36006871 -16.23715865 11.68447302 -13 9 C-10.59454362 7.79727181 -9.05003047 7.89928528 -6.375 7.9375 C-5.14910156 7.95103516 -5.14910156 7.95103516 -3.8984375 7.96484375 C-2.95871094 7.98224609 -2.95871094 7.98224609 -2 8 C-2.04125 7.05125 -2.0825 6.1025 -2.125 5.125 C-2 2 -2 2 0 0 Z M-10.3125 14 C-12.27860309 15.96012036 -12.27860309 15.96012036 -12.375 19.0625 C-12.28930236 22.11861241 -12.28930236 22.11861241 -10 24 C-7.16613833 24.3633156 -5.59477849 24.3568671 -3.125 22.875 C-1.73739279 20.92675581 -1.73739279 20.92675581 -2 17.9375 C-2.72137522 14.84921156 -2.72137522 14.84921156 -5.3125 13.4375 C-7.99791809 12.75240741 -7.99791809 12.75240741 -10.3125 14 Z " fill="#313233" transform="translate(181,19)"/>
<path d="M0 0 C2.45650135 1.42506975 3.99181597 2.94032407 6 5 C5.814375 5.804375 5.62875 6.60875 5.4375 7.4375 C5.2209375 8.7059375 5.2209375 8.7059375 5 10 C5.33 10.33 5.66 10.66 6 11 C5.9375 14.3125 5.9375 14.3125 5 18 C1.84274747 20.93173449 -0.23873628 21.89124804 -4.5 22.5 C-8.64892101 21.907297 -10.76950042 20.6294764 -14 18 C-16.45917586 14.3112362 -16.81591937 11.2815571 -16 7 C-12.15866089 0.3454869 -7.30740892 -1.1505803 0 0 Z M-7 6 C-7.99 7.485 -7.99 7.485 -9 9 C-6.69 8.34 -4.38 7.68 -2 7 C-2 6.67 -2 6.34 -2 6 C-4.41619823 5.74969023 -4.41619823 5.74969023 -7 6 Z M-7 15 C-7 15.33 -7 15.66 -7 16 C-5.35 16 -3.7 16 -2 16 C-1.34 14.68 -0.68 13.36 0 12 C-2.37220987 12 -4.92877733 13.94235438 -7 15 Z " fill="#313131" transform="translate(155,27)"/>
<path d="M0 0 C3.4375 1.6875 3.4375 1.6875 6 4 C7.47688967 8.32517688 7.27777968 12.63425277 6 17 C3.05212391 20.42333998 1.28961129 21.87599891 -3.25 22.3125 C-7.66046321 21.9449614 -9.60030631 20.76719254 -13 18 C-15.45917586 14.3112362 -15.81591937 11.2815571 -15 7 C-11.38115741 0.73092696 -7.04223043 -0.94070611 0 0 Z M-7 6 C-7.66 7.32 -8.32 8.64 -9 10 C-6.36 9.01 -3.72 8.02 -1 7 C-1 6.67 -1 6.34 -1 6 C-2.98 6 -4.96 6 -7 6 Z M-4.6875 14.5 C-5.120625 14.995 -5.55375 15.49 -6 16 C-4.35 16 -2.7 16 -1 16 C-0.67 15.01 -0.34 14.02 0 13 C-3.00259517 12.66781808 -3.00259517 12.66781808 -4.6875 14.5 Z " fill="#303131" transform="translate(96,27)"/>
<path d="M0 0 C1.32 0 2.64 0 4 0 C4.33 2.64 4.66 5.28 5 8 C5.59167969 7.89300781 6.18335938 7.78601563 6.79296875 7.67578125 C10.64211364 7.09181636 13.24713706 6.71166951 16.9375 8.125 C19.2963346 10.26939509 19.9199096 12.04549263 21 15 C22.04800781 14.98839844 23.09601563 14.97679687 24.17578125 14.96484375 C25.55468572 14.95546345 26.93359211 14.9463635 28.3125 14.9375 C29.00279297 14.92912109 29.69308594 14.92074219 30.40429688 14.91210938 C33.5483025 14.89692094 35.99420019 14.99806673 39 16 C38.67 16.66 38.34 17.32 38 18 C35.91673869 18.02709444 33.83337559 18.04643873 31.75 18.0625 C30.00976562 18.07990234 30.00976562 18.07990234 28.234375 18.09765625 C25.59022872 18.01782092 23.50173909 17.78643778 21 17 C20.6596875 18.36125 20.6596875 18.36125 20.3125 19.75 C18.76350023 23.58561847 17.56871184 24.9380776 14 27 C10.11515987 27.48560502 7.76833188 27.34148084 4.1875 25.75 C1.83171834 23.86537467 1.10572169 22.76399589 0 20 C-0.22705078 17.70996094 -0.22705078 17.70996094 -0.1953125 15.234375 C-0.18886719 14.34492187 -0.18242187 13.45546875 -0.17578125 12.5390625 C-0.15902344 11.61867188 -0.14226562 10.69828125 -0.125 9.75 C-0.11597656 8.81414063 -0.10695312 7.87828125 -0.09765625 6.9140625 C-0.07413636 4.60911343 -0.04126853 2.3046884 0 0 Z M7.25 11 C4.79825521 12.87461001 4.79825521 12.87461001 3.875 15.875 C3.7186361 19.18144429 3.7186361 19.18144429 6.125 21.9375 C8.77449141 24.27487536 8.77449141 24.27487536 11.6875 23.9375 C14.1427942 23.11696579 14.1427942 23.11696579 16 21 C15.6814823 18.89179203 15.6814823 18.89179203 15 17 C14.01 17 13.02 17 12 17 C13.32 16.67 14.64 16.34 16 16 C15.88693303 14.04105639 15.88693303 14.04105639 15 12 C11.92792653 10.03728639 10.70687393 9.74295493 7.25 11 Z " fill="#262828" transform="translate(237,22)"/>
<path d="M0 0 C1.32 0 2.64 0 4 0 C4 3.96 4 7.92 4 12 C7.3 11.67 10.6 11.34 14 11 C14 7.7 14 4.4 14 1 C15.65 0.67 17.3 0.34 19 0 C19 8.58 19 17.16 19 26 C17.68 26.33 16.36 26.66 15 27 C14.29105092 23.18939869 14 19.91978817 14 16 C10.7 15.67 7.4 15.34 4 15 C4 18.96 4 22.92 4 27 C2.68 26.67 1.36 26.34 0 26 C0 17.42 0 8.84 0 0 Z " fill="#363839" transform="translate(197,22)"/>
<path d="M0 0 C0 0.33 0 0.66 0 1 C-0.61746094 0.97679687 -1.23492187 0.95359375 -1.87109375 0.9296875 C-10.98809962 0.7354134 -18.35108476 1.84868974 -26 7 C-28.74035643 11.11053465 -28.70865143 14.17371076 -28 19 C-24.77536459 28.58391639 -17.82839099 37.07252596 -9 42 C-7.515 42.495 -7.515 42.495 -6 43 C-6 43.99 -6 44.98 -6 46 C-13.40922609 45.81001984 -18.24135448 40.720331 -23.25 35.78125 C-29.9374309 28.60209624 -32.62341693 22.70656647 -32.3515625 12.80859375 C-31.71366175 7.71247554 -29.22406189 5.15963758 -25.625 1.75 C-17.70808886 -3.52794076 -8.69667629 -3.02493088 0 0 Z " fill="#9FB869" transform="translate(46,14)"/>
<path d="M0 0 C1.32 0.33 2.64 0.66 4 1 C4.02578125 1.91523438 4.0515625 2.83046875 4.078125 3.7734375 C4.13484375 4.96195313 4.1915625 6.15046875 4.25 7.375 C4.29640625 8.55835938 4.3428125 9.74171875 4.390625 10.9609375 C4.65648799 14.11291753 4.65648799 14.11291753 7.046875 15.4140625 C7.69140625 15.60742188 8.3359375 15.80078125 9 16 C9.99 15.34 10.98 14.68 12 14 C12.58592634 10.88389446 12.58592634 10.88389446 12.6875 7.375 C12.75324219 6.18648437 12.81898438 4.99796875 12.88671875 3.7734375 C12.94279297 2.40058594 12.94279297 2.40058594 13 1 C14.32 0.67 15.64 0.34 17 0 C17.08117951 2.41734542 17.14056926 4.83194949 17.1875 7.25 C17.21263672 7.93191406 17.23777344 8.61382812 17.26367188 9.31640625 C17.30892035 12.42346853 17.18317718 14.64999068 15.73046875 17.42578125 C13.40025229 19.54559442 11.08929091 19.85936225 8.00390625 20.109375 C5.03307837 19.94722455 3.27005266 18.85731581 1 17 C-0.53266582 13.93466836 -0.10276471 10.73245728 -0.0625 7.375 C-0.05798828 6.66859375 -0.05347656 5.9621875 -0.04882812 5.234375 C-0.03703875 3.48954725 -0.01910324 1.744763 0 0 Z " fill="#2C2D2E" transform="translate(218,29)"/>
<path d="M0 0 C0.66 0.33 1.32 0.66 2 1 C2.61538462 11.56410256 2.61538462 11.56410256 0.5 16.5 C-5.73620622 22.73620622 -11.99171944 23.52058642 -20.6328125 24.1171875 C-24.12851031 23.99552748 -26.75838749 23.2710274 -30 22 C-28.625 19.5 -28.625 19.5 -27 17 C-26.34 17 -25.68 17 -25 17 C-24.67 17.66 -24.34 18.32 -24 19 C-14.04938768 19.52805127 -14.04938768 19.52805127 -5 16 C-1.0896462 11.68512684 -0.829282 5.57082379 0 0 Z " fill="#9FB65A" transform="translate(74,41)"/>
<path d="M0 0 C2.70569083 1.00610773 3.81218041 1.67131572 5.265625 4.21484375 C7.6530851 10.81825523 9.02265276 16.96034382 8 24 C7.34 24.99 6.68 25.98 6 27 C6 23.7 6 20.4 6 17 C1.57552054 19.21223973 0.58986766 20.94254067 -2 25 C-4.52475462 26.26237731 -6.31200466 26.09856404 -9.125 26.0625 C-10.03507812 26.05347656 -10.94515625 26.04445313 -11.8828125 26.03515625 C-12.93082031 26.01775391 -12.93082031 26.01775391 -14 26 C-14.33 24.68 -14.66 23.36 -15 22 C-13.9790625 22.5259375 -13.9790625 22.5259375 -12.9375 23.0625 C-9.09003284 24.29041505 -6.85587188 24.21388559 -3 23 C-0.06573511 17.75205038 0.39899174 13.48969172 0.1875 7.5625 C0.17396484 6.83095703 0.16042969 6.09941406 0.14648438 5.34570312 C0.11153874 3.56347578 0.05774805 1.78163427 0 0 Z " fill="#1C6CD8" transform="translate(62,5)"/>
<path d="M0 0 C2 2 2 2 2.125 4.625 C2.08375 5.40875 2.0425 6.1925 2 7 C2.763125 7.144375 3.52625 7.28875 4.3125 7.4375 C7 8 7 8 10 9 C9.67 7.68 9.34 6.36 9 5 C9.66 5.33 10.32 5.66 11 6 C11 7.98 11 9.96 11 12 C9.576875 12.0928125 9.576875 12.0928125 8.125 12.1875 C7.09375 12.455625 6.0625 12.72375 5 13 C3.54708727 15.46255685 3.54708727 15.46255685 3 18 C0.49962266 15.82575883 -0.43628586 14.26954202 -1 11 C-1 12.32 -1 13.64 -1 15 C-1.99 14.67 -2.98 14.34 -4 14 C-4.33 13.01 -4.66 12.02 -5 11 C-6.87387216 10.19787372 -6.87387216 10.19787372 -9.0625 9.8125 C-9.79597656 9.65394531 -10.52945312 9.49539062 -11.28515625 9.33203125 C-11.85105469 9.22246094 -12.41695312 9.11289062 -13 9 C-13 8.67 -13 8.34 -13 8 C-11.54263913 7.80508548 -10.08405407 7.61930642 -8.625 7.4375 C-7.81289063 7.33308594 -7.00078125 7.22867188 -6.1640625 7.12109375 C-4 7 -4 7 -2 8 C-1.855625 6.865625 -1.71125 5.73125 -1.5625 4.5625 C-1 1 -1 1 0 0 Z " fill="#2275DE" transform="translate(35,28)"/>
<path d="M0 0 C1.65 0.33 3.3 0.66 5 1 C5 7.6 5 14.2 5 21 C3.35 21.33 1.7 21.66 0 22 C-1.58937556 20.41062444 -1.12981143 18.76100154 -1.1328125 16.5625 C-1.13410156 15.66789062 -1.13539063 14.77328125 -1.13671875 13.8515625 C-1.13091797 12.44003906 -1.13091797 12.44003906 -1.125 11 C-1.12886719 10.05898438 -1.13273438 9.11796875 -1.13671875 8.1484375 C-1.13542969 7.25382812 -1.13414062 6.35921875 -1.1328125 5.4375 C-1.13112061 4.19806641 -1.13112061 4.19806641 -1.12939453 2.93359375 C-1 1 -1 1 0 0 Z " fill="#343535" transform="translate(189,27)"/>
<path d="M0 0 C2.20100503 5.38023451 2.20100503 5.38023451 1.25 8.3125 C0 10 0 10 -2 11 C-4.9375 11.3125 -4.9375 11.3125 -8 11 C-9.9375 9.375 -9.9375 9.375 -11 7 C-10.875 3.875 -10.875 3.875 -10 1 C-6.1496895 -1.56687367 -4.41430237 -0.83288724 0 0 Z " fill="#1568DA" transform="translate(58,15)"/>
<path d="M0 0 C1.32 0 2.64 0 4 0 C4 8.58 4 17.16 4 26 C2.68 26.33 1.36 26.66 0 27 C-0.55338234 24.02556993 -1.00639212 21.28125324 -0.9375 18.25 C-0.7478222 15.79404457 -0.7478222 15.79404457 -3 14 C-2.34 13.67 -1.68 13.34 -1 13 C-1.01160156 12.14535156 -1.02320313 11.29070313 -1.03515625 10.41015625 C-1.04417969 9.30542969 -1.05320313 8.20070313 -1.0625 7.0625 C-1.07410156 5.96035156 -1.08570313 4.85820312 -1.09765625 3.72265625 C-1 1 -1 1 0 0 Z " fill="#2E3030" transform="translate(212,22)"/>
<path d="M0 0 C2.23367361 1.78693889 4.23872502 3.65687132 6.1875 5.75 C3.2175 5.255 3.2175 5.255 0.1875 4.75 C0.5175 6.07 0.8475 7.39 1.1875 8.75 C0.72601563 8.40066406 0.26453125 8.05132812 -0.2109375 7.69140625 C-5.67318531 3.88078673 -10.19992532 2.89905394 -16.8125 2.75 C-13.16158265 -2.72637602 -5.69169454 -2.52964202 0 0 Z " fill="#1A69D2" transform="translate(40.8125,21.25)"/>
<path d="M0 0 C0.33 0 0.66 0 1 0 C1.35568713 5.92811886 1.0174566 9.71945095 -2 15 C-2 15.99 -2 16.98 -2 18 C-1.01 18.33 -0.02 18.66 1 19 C0.59007812 19.60328125 0.18015625 20.2065625 -0.2421875 20.828125 C-0.78101563 21.62734375 -1.31984375 22.4265625 -1.875 23.25 C-2.40867187 24.03890625 -2.94234375 24.8278125 -3.4921875 25.640625 C-4.81822015 27.71555692 -5.94928175 29.77614972 -7 32 C-7.66 31.67 -8.32 31.34 -9 31 C-8.69386303 24.38744137 -7.17636734 19.75052377 -4 14 C-1.759504 9.270064 -0.53204408 5.21403199 0 0 Z " fill="#1F70D6" transform="translate(46,40)"/>
<path d="M0 0 C0 0.33 0 0.66 0 1 C-0.61746094 0.97679687 -1.23492187 0.95359375 -1.87109375 0.9296875 C-11.7117435 0.71999329 -20.37953509 1.92345105 -27.9375 8.75 C-28.4634375 9.36875 -28.4634375 9.36875 -29 10 C-29.33 8.68 -29.66 7.36 -30 6 C-20.97049905 -2.49521096 -11.73318736 -4.08110865 0 0 Z " fill="#9DB06A" transform="translate(46,14)"/>
<path d="M0 0 C1.32 0 2.64 0 4 0 C4.09765625 6.15234375 4.09765625 6.15234375 4 8 C3.67 8.33 3.34 8.66 3 9 C2.90061137 10.76853292 2.87030777 12.54118275 2.875 14.3125 C2.87242187 15.27800781 2.86984375 16.24351563 2.8671875 17.23828125 C2.98371833 19.66143705 3.30758352 21.68644969 4 24 C3.34 24 2.68 24 2 24 C0.22330777 20.93843346 -0.24050818 18.75963785 -0.1953125 15.234375 C-0.18886719 14.34492187 -0.18242187 13.45546875 -0.17578125 12.5390625 C-0.15902344 11.61867188 -0.14226562 10.69828125 -0.125 9.75 C-0.11597656 8.81414063 -0.10695312 7.87828125 -0.09765625 6.9140625 C-0.07413636 4.60911343 -0.04126853 2.3046884 0 0 Z " fill="#28292B" transform="translate(237,22)"/>
<path d="M0 0 C0.49371094 0.32871094 0.98742187 0.65742187 1.49609375 0.99609375 C4.99979444 2.40085362 8.35465048 2.17263414 12.0625 2.0625 C19.63814691 1.8793823 19.63814691 1.8793823 23 3 C22.67 3.66 22.34 4.32 22 5 C19.91673869 5.02709444 17.83337559 5.04643873 15.75 5.0625 C14.00976562 5.07990234 14.00976562 5.07990234 12.234375 5.09765625 C9.59022872 5.01782092 7.50173909 4.78643778 5 4 C5 4.66 5 5.32 5 6 C4.34 6 3.68 6 3 6 C2.67 6.99 2.34 7.98 2 9 C0 8 0 8 -2 5 C-4.56282742 4.27034634 -4.56282742 4.27034634 -7 4 C-7 3.67 -7 3.34 -7 3 C-4.69 3 -2.38 3 0 3 C0 2.01 0 1.02 0 0 Z " fill="#283A44" transform="translate(253,35)"/>
<path d="M0 0 C1.953125 0.8671875 1.953125 0.8671875 4 2 C4.75 4.125 4.75 4.125 5 6 C4.01 5.67 3.02 5.34 2 5 C2.04640625 5.94101563 2.0928125 6.88203125 2.140625 7.8515625 C2.47222222 19.29166667 2.47222222 19.29166667 0.125 22.8125 C-2.22097949 25.22747889 -3.04668849 25.96092986 -6.3828125 26.09765625 C-7.28773437 26.08605469 -8.19265625 26.07445313 -9.125 26.0625 C-10.03507812 26.05347656 -10.94515625 26.04445313 -11.8828125 26.03515625 C-12.93082031 26.01775391 -12.93082031 26.01775391 -14 26 C-14.33 24.68 -14.66 23.36 -15 22 C-13.9790625 22.5259375 -13.9790625 22.5259375 -12.9375 23.0625 C-9.09003284 24.29041505 -6.85587188 24.21388559 -3 23 C-0.06573511 17.75205038 0.39899174 13.48969172 0.1875 7.5625 C0.17396484 6.83095703 0.16042969 6.09941406 0.14648438 5.34570312 C0.11153874 3.56347578 0.05774805 1.78163427 0 0 Z " fill="#236CCC" transform="translate(62,5)"/>
<path d="M0 0 C0.66 0.33 1.32 0.66 2 1 C2.63019694 11.97592998 2.63019694 11.97592998 0 16.25 C-0.66 16.8275 -1.32 17.405 -2 18 C-2.99 17.34 -3.98 16.68 -5 16 C-4.54625 15.401875 -4.0925 14.80375 -3.625 14.1875 C-1.31474971 9.6558552 -0.74391192 4.99733773 0 0 Z " fill="#A3B364" transform="translate(74,41)"/>
<path d="M0 0 C2 0.66666667 4 1.33333333 6 2 C6 3.65 6 5.3 6 7 C4.02 7.33 2.04 7.66 0 8 C0 7.34 0 6.68 0 6 C-0.66 6 -1.32 6 -2 6 C-2 4.68 -2 3.36 -2 2 C-1.34 2 -0.68 2 0 2 C0 1.34 0 0.68 0 0 Z " fill="#0267F5" transform="translate(51,15)"/>
<path d="M0 0 C0.66 0 1.32 0 2 0 C2.33 0.66 2.66 1.32 3 2 C5.8159849 2.46898963 5.8159849 2.46898963 9.0625 2.625 C10.71958984 2.73714844 10.71958984 2.73714844 12.41015625 2.8515625 C13.26480469 2.90054688 14.11945312 2.94953125 15 3 C15 3.33 15 3.66 15 4 C11.7 4 8.4 4 5 4 C5 4.99 5 5.98 5 7 C2.36 6.34 -0.28 5.68 -3 5 C-1.625 2.5 -1.625 2.5 0 0 Z " fill="#80A880" transform="translate(47,58)"/>
<path d="M0 0 C0.66 0.66 1.32 1.32 2 2 C1.63318342 4.93453261 1.13562754 5.86437246 -1 8 C-0.34 8 0.32 8 1 8 C1 8.66 1 9.32 1 10 C-4.34001821 11.33500455 -7.83955235 10.512545 -13 9 C-13 8.67 -13 8.34 -13 8 C-11.54263913 7.80508548 -10.08405407 7.61930642 -8.625 7.4375 C-7.81289063 7.33308594 -7.00078125 7.22867188 -6.1640625 7.12109375 C-4 7 -4 7 -2 8 C-1.855625 6.865625 -1.71125 5.73125 -1.5625 4.5625 C-1 1 -1 1 0 0 Z " fill="#3D7CC5" transform="translate(35,28)"/>
<path d="M0 0 C0 0.33 0 0.66 0 1 C-2.77109307 1.05392397 -5.54113818 1.09363455 -8.3125 1.125 C-9.09818359 1.14175781 -9.88386719 1.15851562 -10.69335938 1.17578125 C-11.45068359 1.18222656 -12.20800781 1.18867188 -12.98828125 1.1953125 C-14.03302612 1.21102295 -14.03302612 1.21102295 -15.09887695 1.22705078 C-17 1 -17 1 -20 -1 C-13.33927142 -3.22024286 -6.5170415 -2.26679704 0 0 Z " fill="#6B7C5D" transform="translate(46,14)"/>
<path d="M0 0 C2.475 0.99 2.475 0.99 5 2 C4.125 6.75 4.125 6.75 3 9 C1.68 8.67 0.36 8.34 -1 8 C-0.34 7.01 0.32 6.02 1 5 C0.01 5 -0.98 5 -2 5 C-1.34 3.35 -0.68 1.7 0 0 Z " fill="#363837" transform="translate(98,37)"/>
<path d="M0 0 C2.1875 0.3125 2.1875 0.3125 4 1 C4 2.65 4 4.3 4 6 C1 7 1 7 -2 6 C-2.33 5.01 -2.66 4.02 -3 3 C-1.75 1.4375 -1.75 1.4375 0 0 Z " fill="#2F3131" transform="translate(190,19)"/>
<path d="M0 0 C0.66 0.33 1.32 0.66 2 1 C2.4140625 3.72265625 2.4140625 3.72265625 2.625 7.0625 C2.69976563 8.16722656 2.77453125 9.27195312 2.8515625 10.41015625 C2.90054687 11.26480469 2.94953125 12.11945312 3 13 C1.68 12.34 0.36 11.68 -1 11 C-1.0270043 9.54176788 -1.04639787 8.08339325 -1.0625 6.625 C-1.07410156 5.81289063 -1.08570313 5.00078125 -1.09765625 4.1640625 C-1 2 -1 2 0 0 Z " fill="#A3B76E" transform="translate(15,22)"/>
<path d="M0 0 C-1.8125 3 -1.8125 3 -4 6 C-4.99 6 -5.98 6 -7 6 C-7.33 4.02 -7.66 2.04 -8 0 C-5.13822943 -1.43088528 -3.06624227 -0.59991697 0 0 Z " fill="#0C6BDF" transform="translate(54,52)"/>
<path d="M0 0 C3.63 0 7.26 0 11 0 C11.33 0.66 11.66 1.32 12 2 C9.24921116 2.91692961 7.64051087 3.10886083 4.8125 3.0625 C2.9253125 3.0315625 2.9253125 3.0315625 1 3 C0.67 2.01 0.34 1.02 0 0 Z " fill="#303233" transform="translate(200,34)"/>
<path d="M0 0 C0.66 0.33 1.32 0.66 2 1 C2 4.3 2 7.6 2 11 C1.01 11 0.02 11 -1 11 C-0.67 7.37 -0.34 3.74 0 0 Z " fill="#B8C289" transform="translate(74,41)"/>
<path d="M0 0 C-0.33 0.66 -0.66 1.32 -1 2 C-3.12472576 2.05386629 -5.24983652 2.09273071 -7.375 2.125 C-9.15003906 2.15980469 -9.15003906 2.15980469 -10.9609375 2.1953125 C-14 2 -14 2 -16 0 C-10.39436958 -0.82622671 -5.57710648 -1.06795656 0 0 Z " fill="#5093A5" transform="translate(276,38)"/>
<path d="M0 0 C2.31 0.33 4.62 0.66 7 1 C8.125 3.8125 8.125 3.8125 9 7 C8.01 8.485 8.01 8.485 7 10 C7 7.69 7 5.38 7 3 C5.824375 3.0928125 5.824375 3.0928125 4.625 3.1875 C3.75875 3.125625 2.8925 3.06375 2 3 C1.34 2.01 0.68 1.02 0 0 Z " fill="#236BCC" transform="translate(51,14)"/>
<path d="M0 0 C0.99 0.33 1.98 0.66 3 1 C4.125 8.75 4.125 8.75 3 11 C2.34 11 1.68 11 1 11 C0.67 7.37 0.34 3.74 0 0 Z " fill="#0568EF" transform="translate(64,10)"/>
<path d="M0 0 C1.17571451 3.67410785 1.07366746 7.16929183 1 11 C0.01 11 -0.98 11 -2 11 C-1.85892253 9.54119891 -1.71197585 8.08296449 -1.5625 6.625 C-1.48128906 5.81289062 -1.40007813 5.00078125 -1.31640625 4.1640625 C-1 2 -1 2 0 0 Z " fill="#387CC2" transform="translate(39,60)"/>
<path d="M0 0 C0.33 0.66 0.66 1.32 1 2 C1.66 2.33 2.32 2.66 3 3 C2.01 4.98 1.02 6.96 0 9 C-0.66 9 -1.32 9 -2 9 C-1.125 2.25 -1.125 2.25 0 0 Z " fill="#383939" transform="translate(164,31)"/>
<path d="M0 0 C0 0.66 0 1.32 0 2 C-2.8125 3.125 -2.8125 3.125 -6 4 C-6.99 3.34 -7.98 2.68 -9 2 C-5.5647952 -0.29013653 -4.014669 -0.17842973 0 0 Z " fill="#8FA05F" transform="translate(29,14)"/>
<path d="M0 0 C0.33 0.99 0.66 1.98 1 3 C-0.25 4.5 -0.25 4.5 -2 6 C-3.32 6 -4.64 6 -6 6 C-5.34 4.68 -4.68 3.36 -4 2 C-3.01 2 -2.02 2 -1 2 C-0.67 1.34 -0.34 0.68 0 0 Z " fill="#262E2D" transform="translate(256,41)"/>
<path d="M0 0 C1.9375 0.75 1.9375 0.75 4 2 C4.75 4.125 4.75 4.125 5 6 C4.01 5.67 3.02 5.34 2 5 C1.67 5.99 1.34 6.98 1 8 C0.67 5.36 0.34 2.72 0 0 Z " fill="#3469C8" transform="translate(62,5)"/>
<path d="M0 0 C2 2 2 2 2 6 C1.01 5.67 0.02 5.34 -1 5 C-1 4.34 -1 3.68 -1 3 C-1.99 2.67 -2.98 2.34 -4 2 C-2.68 1.34 -1.36 0.68 0 0 Z " fill="#273238" transform="translate(255,32)"/>
<path d="M0 0 C1.32 1.32 2.64 2.64 4 4 C-0.01804691 4.84098656 -3.01803543 5.05404945 -7 4 C-7 3.67 -7 3.34 -7 3 C-4.69 3 -2.38 3 0 3 C0 2.01 0 1.02 0 0 Z " fill="#4E627F" transform="translate(253,35)"/>
<path d="M0 0 C2.475 0.495 2.475 0.495 5 1 C4.01 1.495 4.01 1.495 3 2 C3 3.32 3 4.64 3 6 C2.01 5.67 1.02 5.34 0 5 C0 3.35 0 1.7 0 0 Z " fill="#2B71CF" transform="translate(31,37)"/>
<path d="M0 0 C1.485 0.99 1.485 0.99 3 2 C3.6875 5.625 3.6875 5.625 4 9 C1.47740939 7.02579865 1.0070192 6.03254358 0.3125 2.8125 C0.209375 1.884375 0.10625 0.95625 0 0 Z " fill="#9FAF5F" transform="translate(14,33)"/>
</svg>
